{"title":"The Rise of the Krays {2015} HC WEB RIP 72OP X264 AC3-MRG","uid":12290957,"size":782809773,"categoryP":"video","categoryS":"movies","magnet":"?xt=urn:btih:531db48e1c94239a9585536613dc5d208f0ef6a6&amp;dn=The+Rise+of+the+Krays+%7B2015%7D+HC+WEB+RIP+72OP+X264+AC3-MRG&amp;tr=udp%3A%2F%2Ftracker.openbittorrent.com%3A80&amp;tr=udp%3A%2F%2Fopen.demonii.com%3A1337&amp;tr=udp%3A%2F%2Ftracker.coppersurfer.tk%3A6969&amp;tr=udp%3A%2F%2Fexodus.desync.com%3A6969","seeders":69,"leechers":8,"uploader":".BONE.","files":5,"time":1440549776,"description":"The Rise of the Krays {2015} HC WEB RIP 72OP X264 AC3-MRG\n\nFilmey TY.................\n\nFormat : Matroska\nFormat version : Version 4 / Version 2\nFile size : 747 MiB\nDuration : 1h 50mn\nOverall bit rate : 945 Kbps\nWriting application : Lavf56.25.101\nWriting library : Lavf56.25.101\n\nVideo\nID : 1\nFormat : AVC\nFormat/Info : Advanced Video Codec\nFormat profile : &lt;a class=&quot;__cf_email__&quot; href=&quot;/cdn-cgi/l/email-protection&quot; data-cfemail=&quot;85cdece2edc5c9b6abb4&quot;&gt;[email&amp;#160;protected]&lt;/a&gt;&lt;script data-cfhash='f9e31' type=&quot;text/javascript&quot;&gt;\n/* &lt;![CDATA[ */!function(){try{var t=&quot;currentScript&quot;in document?document.currentScript:function(){for(var t=document.getElementsByTagName(&quot;script&quot;),e=t.length;e--;)if(t[e].getAttribute(&quot;data-cfhash&quot;))return t[e]}();if(t&amp;&amp;t.previousSibling){var e,r,n,i,c=t.previousSibling,a=c.getAttribute(&quot;data-cfemail&quot;);if(a){for(e=&quot;&quot;,r=parseInt(a.substr(0,2),16),n=2;a.length-n;n+=2)i=parseInt(a.substr(n,2),16)^r,e+=String.fromCharCode(i);e=document.createTextNode(e),c.parentNode.replaceChild(e,c)}t.parentNode.removeChild(t);}}catch(u){}}()/* ]]&gt; */&lt;/script&gt;\nFormat settings, CABAC : Yes\nFormat settings, ReFrames : 4 frames\nCodec ID : V_MPEG4/ISO/AVC\nDuration : 1h 50mn\nBit rate : 715 Kbps\nWidth : 1 248 pixels\nHeight : 592 pixels\nDisplay aspect ratio : 2.108\nFrame rate mode : Constant\nFrame rate : 25.000 fps\nColor space : YUV\nChroma subsampling : 4:2:0\nBit depth : 8 bits\nScan type : Progressive\nBits/(Pixel*Frame) : 0.039\nStream size : 555 MiB (74%)\nWriting library : x264 core\n\nAudio\nID : 2\nFormat : AC-3\nFormat/Info : Audio Coding 3\nMode extension : CM (complete main)\nFormat settings, Endianness : Big\nCodec ID : A_AC3\nDuration : 1h 50mn\nBit rate mode : Constant\nBit rate : 224 Kbps\nChannel(s) : 2 channels\nChannel positions : Front: L R\nSampling rate : 48.0 KHz\nCompression mode : Lossy\nDelay relative to video : 16ms\nStream size : 177 MiB (24%)\nDefault : Yes\n &lt;a href=&quot;\nhttp://extraimago.com/images/2015/08/25/TheRiseoftheKrays2015WEBRIPX264AC3-MRG.mkv_thumbs_2015.08.25_21.50.38.jpg&quot; rel=&quot;nofollow&quot; target=&quot;_NEW&quot;&gt;\nhttp://extraimago.com/images/2015/08/25/TheRiseoftheKrays2015WEBRIPX264AC3-MRG.mkv_thumbs_2015.08.25_21.50.38.jpg&lt;/a&gt;","torrent":{"xt":"urn:btih:531db48e1c94239a9585536613dc5d208f0ef6a6","amp;dn":"The+Rise+of+the+Krays+%7B2015%7D+HC+WEB+RIP+72OP+X264+AC3-MRG","amp;tr":["udp%3A%2F%2Ftracker.openbittorrent.com%3A80","udp%3A%2F%2Fopen.demonii.com%3A1337","udp%3A%2F%2Ftracker.coppersurfer.tk%3A6969","udp%3A%2F%2Fexodus.desync.com%3A6969"],"infoHash":"531db48e1c94239a9585536613dc5d208f0ef6a6","infoHashBuffer":{"type":"Buffer","data":[83,29,180,142,28,148,35,154,149,133,83,102,19,220,93,32,143,14,246,166]},"announce":[],"urlList":[]}}